<svg xmlns="http://www.w3.org/2000/svg" viewBox="0 0 98 98" width="98" height="98">
	<style>
		tspan { white-space:pre }
		.shp0 { fill: #ffffff } 
	</style>
	<g id="Layer">
		<g id="Layer">
			<path id="Layer" class="shp0" d="M50.7 33.7C50.7 26.9 46.7 16.4 38.9 16.4C36.5 16.4 33.8 17.6 32.3 19.5C30.7 21.5 30.2 24 30.2 26.5C30.2 32.8 33.9 43.2 41.9 43.2C44.2 43.2 46.8 42.1 48.3 40.6C50.5 38.4 50.7 35.4 50.7 33.7Z" />
			<path id="Layer" class="shp0" d="M45.7 58.4C45 58.3 44.5 58.3 43.5 58.3C42.7 58.3 37.6 58.5 33.6 59.8C31.5 60.5 25.5 62.8 25.5 69.5C25.6 76.2 32 81 42.1 81C51.1 81 55.9 76.7 55.9 70.8C55.9 66 52.8 63.5 45.7 58.4Z" />
			<path id="Layer" fill-rule="evenodd" class="shp0" d="M97.8 48.9C97.8 75.9 75.9 97.8 48.9 97.8C21.9 97.8 0 75.9 0 48.9C0 21.9 21.9 0 48.9 0C75.9 0 97.8 21.9 97.8 48.9ZM62.2 67.1C62.2 60.6 58.4 57.4 54.3 53.9L50.9 51.3C49.9 50.5 48.5 49.4 48.5 47.3C48.5 45.2 49.9 43.9 51.1 42.7C55.1 39.6 59 36.3 59 29.3C59 22.1 54.5 18.4 52.3 16.6L58.1 16.6L64.2 12.8L45.7 12.8C40.7 12.8 33.4 14 28 18.4C24 21.9 22 26.7 22 31C22 38.4 27.6 45.8 37.5 45.7C38.4 45.7 39.5 45.6 40.5 45.5C40.1 46.7 39.6 47.6 39.6 49.2C39.6 52.1 41.1 53.9 42.4 55.6C38.2 55.9 30.3 56.3 24.5 59.9C19 63.2 17.3 68 17.3 71.4C17.3 78.4 23.9 84.9 37.5 84.9C53.6 84.9 62.2 76 62.2 67.1ZM87.4 47.7L87.4 43L78 43L78 33.6L73.4 33.6L73.4 43L64 43L64 47.7L73.4 47.7L73.4 57.2L78 57.2L78 47.7L87.4 47.7Z" />
		</g>
	</g>
</svg>