<svg xmlns="http://www.w3.org/2000/svg" viewBox="0 0 98 98" width="98" height="98">
	<style>
		tspan { white-space:pre }
		.shp0 { fill: #ffffff } 
	</style>
	<g id="Layer">
		<path id="Layer" fill-rule="evenodd" class="shp0" d="M97.8 48.9C97.8 75.9 75.9 97.8 48.9 97.8C21.9 97.8 0 75.9 0 48.9C0 21.9 21.9 0 48.9 0C75.9 0 97.8 21.9 97.8 48.9ZM67.5 24.9L67.6 13L57.7 13C48 13 41.3 19 41.3 29.9L41.3 39.3L30.3 39.3L30.3 52L41.3 52L41.3 84.8L54.4 84.8L54.4 52L67 52L67 39.2L54.4 39.2L54.4 31.1C54.4 27.4 55.4 24.9 60.7 24.9L67.5 24.9Z" />
	</g>
</svg>