<svg xmlns="http://www.w3.org/2000/svg" viewBox="0 0 98 98" width="98" height="98">
	<style>
		tspan { white-space:pre }
		.shp0 { fill: #ffffff } 
	</style>
	<g id="Layer">
		<path id="Layer" fill-rule="evenodd" class="shp0" d="M97.8 48.9C97.8 75.9 75.9 97.8 48.9 97.8C21.9 97.8 0 75.9 0 48.9C0 21.9 21.9 0 48.9 0C75.9 0 97.8 21.9 97.8 48.9ZM85.7 27.9C85.8 27.8 85.8 27.6 85.7 27.5C85.6 27.4 85.4 27.3 85.3 27.4C83.2 28.4 80.9 29.1 78.5 29.5C81 27.6 82.8 25 83.8 22C83.9 21.9 83.8 21.7 83.7 21.6C83.6 21.5 83.4 21.5 83.3 21.6C80.5 23.3 77.4 24.4 74.2 25.1C71.4 22.2 67.4 20.5 63.3 20.5C54.9 20.5 48.1 27.3 48.1 35.7C48.1 36.7 48.2 37.7 48.4 38.7C36.8 38 26 32.4 18.6 23.4C18.5 23.3 18.4 23.3 18.3 23.3C18.2 23.3 18.1 23.4 18 23.5C16.6 25.8 15.9 28.4 15.9 31.1C15.9 35.8 18 40.1 21.6 43C19.7 42.8 17.9 42.2 16.3 41.3C16.1 41.2 16 41.2 15.9 41.3C15.8 41.4 15.7 41.5 15.7 41.6L15.7 41.8C15.7 48.5 20.1 54.4 26.4 56.3C24.8 56.5 23.1 56.5 21.4 56.2C21.3 56.2 21.2 56.2 21.1 56.3C21 56.4 21 56.6 21 56.7C22.9 62.6 28.1 66.7 34.2 67.2C29.1 70.9 23.1 72.9 16.8 72.9C15.6 72.9 14.4 72.8 13.3 72.7C13.1 72.6 13 72.7 12.9 72.9C12.8 73 12.9 73.2 13 73.3C19.9 77.7 27.8 80 35.9 80C62.5 80 78.4 58.4 78.4 37.5C78.4 37 78.4 36.4 78.4 35.8C81.3 33.7 83.8 31.2 85.7 27.9Z" />
	</g>
</svg>