<svg xmlns="http://www.w3.org/2000/svg" viewBox="0 0 98 98" width="98" height="98">
	<style>
		tspan { white-space:pre }
		.shp0 { fill: #ffffff } 
	</style>
	<g id="Layer">
		<g id="Layer">
			<path id="Layer" fill-rule="evenodd" class="shp0" d="M73 52.1C73 55.3 70.4 58 67.1 58C63.9 58 61.2 55.3 61.2 52C61.2 48.7 63.9 46.1 67.2 46.1C70.5 46.1 73.1 48.7 73 52.1ZM70.2 52C70.2 50.4 68.9 49 67.2 49C65.5 49 64.2 50.3 64.2 52C64.2 53.7 65.5 55 67.2 55C68.8 55 70.2 53.7 70.2 52Z" />
			<path id="Layer" fill-rule="evenodd" class="shp0" d="M45.2 52.2C45.2 60.2 38.7 66.7 30.7 66.8C22.5 66.9 16 60.2 15.9 52.4C15.7 44 22.6 37.4 30.5 37.5C38.7 37.5 45.2 44.1 45.2 52.2ZM39.3 52C39.3 46.9 35.2 42.9 30.2 42.9C25.4 42.8 21.1 46.8 21.1 52C21.1 57.1 25.4 61.3 30.7 61.1C35.4 60.9 39.4 57.1 39.3 52Z" />
			<path id="Layer" fill-rule="evenodd" class="shp0" d="M97.8 48.9C97.8 75.9 75.9 97.8 48.9 97.8C21.9 97.8 0 75.9 0 48.9C0 21.9 21.9 0 48.9 0C75.9 0 97.8 21.9 97.8 48.9ZM85.3 56.8C86.6 51.3 85.6 46.2 82.4 41.6C82.2 41.3 82.2 41.1 82.3 40.9C82.9 38.7 84 36.8 85.2 34.9C85.4 34.6 85.5 34.4 85.7 34.1C85.7 34.1 85.7 34.1 85.7 34C85.4 34 85.1 34 84.8 34C81.2 34 77.6 34 74 34C73.7 34 73.4 33.9 73.2 33.8C70.1 31.9 66.9 30.4 63.4 29.3C61.4 28.7 59.4 28.2 57.3 27.9C54.5 27.5 50.3 27 45.1 27.4C42.9 27.5 40.8 27.8 38.7 28.2C36.5 28.6 34.4 29.2 32.3 29.9C29.4 30.9 26.6 32.2 24 33.9C23.8 34 23.7 34.1 23.5 34.1C19.8 34.1 16.1 34.1 12.4 34.1C12.3 34.1 12.3 34.1 12.2 34.1L12.2 34.2C12.5 34.7 12.8 35.1 13.1 35.5C14.2 37.3 15.2 39.1 15.7 41.1C15.7 41.2 15.7 41.5 15.6 41.6C14.2 43.5 13.3 45.5 12.7 47.8C12.5 48.6 11.8 51.8 12.4 55.1C13 58.7 14.4 61.8 16.8 64.5C19.3 67.3 22.3 69.1 25.8 70.1C28.3 70.8 30.8 70.9 33.4 70.5C38 69.7 41.8 67.6 44.8 64L44.9 63.9C44.9 63.9 44.9 63.8 45 63.8C46.3 65.7 47.6 67.6 48.9 69.6C50.2 67.6 51.5 65.7 52.8 63.7C53.2 64.1 53.5 64.5 53.8 64.8C56.3 67.4 59.3 69.2 62.8 70.1C64.2 70.5 65.7 70.7 67.2 70.7C70.7 70.7 74 69.8 77 67.9C81.2 65.2 83.9 61.5 85.3 56.8Z" />
			<path id="Layer" fill-rule="evenodd" class="shp0" d="M36.2 51.9C36.2 55.2 33.5 57.9 30.3 57.9C27 57.9 24.3 55.3 24.3 52C24.3 48.8 27 46.1 30.2 46.1C33.6 46.1 36.2 48.7 36.2 51.9ZM33.3 52C33.2 50.3 31.9 49 30.2 49C28.5 49 27.2 50.3 27.2 52C27.2 53.8 28.6 55.1 30.3 55.1C32 55 33.4 53.7 33.3 52Z" />
			<path id="Layer" fill-rule="evenodd" class="shp0" d="M81.9 52.2C81.9 60.4 75.3 66.9 67.2 66.9C59.1 67 52.5 60.3 52.5 52.2C52.6 44.2 58.9 37.8 66.9 37.6C75 37.4 81.9 43.8 81.9 52.2ZM76.3 52C76.3 46.9 72.2 42.9 67.2 42.9C62.4 42.8 58.1 46.8 58.1 52C58.1 57.1 62.3 61.3 67.6 61.1C72.3 60.9 76.3 57 76.3 52Z" />
			<path id="Layer" class="shp0" d="M54.7 38.6C57.9 35.6 61.8 34.1 66.2 33.7C61 31.4 55.5 30.4 49.8 30.3C43.4 30.2 37.1 31.1 31.2 33.6C35.7 33.9 39.6 35.4 42.9 38.4C46.2 41.4 48.1 45.2 48.8 49.6C49.6 45.3 51.5 41.6 54.7 38.6Z" />
		</g>
	</g>
</svg>