<svg xmlns="http://www.w3.org/2000/svg" viewBox="0 0 98 98" width="98" height="98">
	<style>
		tspan { white-space:pre }
		.shp0 { fill: #ffffff } 
	</style>
	<g id="Layer">
		<path id="Layer" fill-rule="evenodd" class="shp0" d="M97.8 48.9C97.8 75.9 75.9 97.8 48.9 97.8C21.9 97.8 0 75.9 0 48.9C0 21.9 21.9 0 48.9 0C75.9 0 97.8 21.9 97.8 48.9ZM73.3 48.6C75.1 46 77.1 43.6 78.9 41.1C80.6 38.8 82.3 36.4 83.2 33.6C83.7 31.8 83.2 31 81.4 30.7C81 30.6 80.7 30.6 80.4 30.6L69.5 30.6C68.1 30.6 67.4 31.2 66.9 32.4C66.2 34 65.6 35.6 64.8 37.2C63 40.7 61.1 44.1 58.4 47C57.8 47.6 57.1 48.4 56.1 48.1C54.8 47.7 54.5 45.6 54.5 44.9L54.5 32.3C54.3 30.5 53.9 29.8 52.1 29.4L40.8 29.4C39.3 29.4 38.5 30 37.7 30.9C37.3 31.5 37.1 31.8 38.1 32C40 32.4 41 33.6 41.3 35.6C41.8 38.6 41.8 41.6 41.5 44.6C41.4 45.5 41.2 46.4 40.9 47.2C40.3 48.5 39.5 48.8 38.3 48C37.3 47.2 36.5 46.2 35.8 45.2C33.1 41.4 31 37.2 29.2 32.9C28.7 31.7 27.8 30.9 26.5 30.9C23.2 30.8 20 30.8 16.7 30.9C14.7 31 14.1 31.9 14.9 33.7C18.5 41.6 22.4 49.3 27.6 56.3C30.2 59.9 33.3 63 37.2 65.3C41.6 67.9 46.4 68.6 51.5 68.4C53.9 68.3 54.6 67.7 54.7 65.3C54.8 63.7 55 62.1 55.8 60.6C56.5 59.2 57.7 58.9 59.1 59.8C59.8 60.2 60.4 60.8 60.9 61.4C62.2 62.9 63.5 64.4 64.9 65.8C66.7 67.6 68.7 68.6 71.3 68.4L81.3 68.4C82.9 68.3 83.7 66.3 82.8 64.5C82.2 63.2 81.3 62.1 80.4 61C78.4 58.5 76 56.4 73.7 54.2C71.6 52.2 71.5 51 73.3 48.6Z" />
	</g>
</svg>